<?xml version="1.0" encoding="utf-8"?>
<!-- Generator: Adobe Illustrator 24.1.3, SVG Export Plug-In . SVG Version: 6.00 Build 0)  -->
<svg version="1.1" id="Layer_1" xmlns="http://www.w3.org/2000/svg" xmlns:xlink="http://www.w3.org/1999/xlink" x="0px" y="0px"
	 viewBox="0 0 50 50" style="enable-background:new 0 0 50 50;" xml:space="preserve">
<style type="text/css">
	.st0{fill:#192E58;}
	.st1{fill:#00AF4D;}
	.st2{fill:#2A2765;}
	.st3{fill:#FFFFFF;}
	.st4{fill:#004321;}
	.st5{fill:#00AB4E;}
	.st6{fill:#333333;}
</style>
<g>
	<g>
		<path class="st3" d="M16.9,19.9c0-0.1-0.1-0.1-0.1-0.2l-1.7-2.4l1.7-2.4c0,0,0.1-0.1,0.1-0.1c0,0,0-0.1,0-0.1c0,0,0,0-0.1-0.1
			c0,0-0.1,0-0.1,0h-1.4c-0.1,0-0.1,0-0.2,0.1c0,0-0.1,0.1-0.1,0.2c-0.1,0.1-0.1,0.2-0.2,0.3c-0.1,0.1-0.1,0.2-0.2,0.4
			c-0.1,0.1-0.2,0.3-0.2,0.4c-0.1,0.1-0.1,0.2-0.2,0.3l-0.8-1.3c0-0.1-0.1-0.1-0.1-0.2c0,0-0.1-0.1-0.1-0.1h-1.4c-0.1,0-0.1,0-0.2,0
			c0,0-0.1,0.1-0.1,0.1c0,0,0,0.1,0,0.1c0,0,0,0.1,0.1,0.1l1.6,2.3l-1.7,2.4c0,0,0,0.1-0.1,0.1c0,0,0,0.1,0,0.1l0,0
			c0,0.1,0,0.1,0.1,0.1c0,0,0.1,0,0.1,0h1.5c0,0,0.1,0,0.1-0.1c0,0,0.1-0.1,0.1-0.2l0.8-1.4l0.8,1.4c0.1,0.2,0.2,0.2,0.3,0.2h1.4
			c0.1,0,0.2,0,0.2-0.1c0,0,0.1-0.1,0.1-0.1C16.9,20,16.9,20,16.9,19.9z"/>
	</g>
	<g>
		<path class="st3" d="M16.3,22.6H12c-0.2,0-0.4-0.2-0.4-0.4v-0.4c0-0.2,0.2-0.4,0.4-0.4h4.2c0.2,0,0.4,0.2,0.4,0.4v0.4
			C16.7,22.4,16.5,22.6,16.3,22.6z"/>
	</g>
	<g>
		<path class="st3" d="M23.4,19.9c0-0.1-0.1-0.1-0.1-0.2l-1.7-2.4l1.7-2.4c0,0,0.1-0.1,0.1-0.1c0,0,0-0.1,0-0.1c0,0,0,0-0.1-0.1
			c0,0-0.1,0-0.1,0h-1.4c-0.1,0-0.1,0-0.2,0.1c0,0-0.1,0.1-0.1,0.2c-0.1,0.1-0.1,0.2-0.2,0.3c-0.1,0.1-0.1,0.2-0.2,0.4
			c-0.1,0.1-0.2,0.3-0.2,0.4c-0.1,0.1-0.1,0.2-0.2,0.3l-0.8-1.3c-0.1-0.1-0.1-0.1-0.1-0.2c0,0-0.1-0.1-0.1-0.1h-1.4
			c-0.1,0-0.1,0-0.2,0c0,0-0.1,0.1-0.1,0.1c0,0,0,0.1,0,0.1c0,0,0,0.1,0.1,0.1l1.6,2.3l-1.7,2.4c0,0,0,0.1-0.1,0.1c0,0,0,0.1,0,0.1
			l0,0c0,0.1,0,0.1,0.1,0.1c0,0,0.1,0,0.1,0h1.5c0.1,0,0.1,0,0.1-0.1c0.1,0,0.1-0.1,0.1-0.2l0.8-1.4l0.8,1.4
			c0.1,0.2,0.2,0.2,0.3,0.2h1.4c0.1,0,0.2,0,0.2-0.1c0,0,0.1-0.1,0.1-0.1C23.5,20,23.5,20,23.4,19.9z"/>
	</g>
	<g>
		<path class="st3" d="M22.8,22.6h-4.2c-0.2,0-0.4-0.2-0.4-0.4v-0.4c0-0.2,0.2-0.4,0.4-0.4h4.2c0.2,0,0.4,0.2,0.4,0.4v0.4
			C23.3,22.4,23.1,22.6,22.8,22.6z"/>
	</g>
	<g>
		<path class="st3" d="M29.5,22.6h-4.2c-0.2,0-0.4-0.2-0.4-0.4v-0.4c0-0.2,0.2-0.4,0.4-0.4h4.2c0.2,0,0.4,0.2,0.4,0.4v0.4
			C30,22.4,29.8,22.6,29.5,22.6z"/>
	</g>
	<g>
		<path class="st3" d="M36.2,22.6H32c-0.2,0-0.4-0.2-0.4-0.4v-0.4c0-0.2,0.2-0.4,0.4-0.4h4.2c0.2,0,0.4,0.2,0.4,0.4v0.4
			C36.6,22.4,36.4,22.6,36.2,22.6z"/>
	</g>
	<g>
		<path class="st3" d="M7.3,11.6v14h22.2c-0.1-0.3-0.1-0.6-0.2-0.9c0,0,0-0.1,0-0.1h-21v-12h33.5v12H30.1c0.1,0.2,0.2,0.4,0.2,0.6
			c0,0.1,0.1,0.3,0.1,0.4h12.3v-14H7.3z"/>
	</g>
	<g>
		<g>
			<path class="st3" d="M39.7,31.9c-0.2-0.9-0.5-1.8-0.9-2.6c-0.2-0.4-0.4-0.9-0.6-1.2c-0.5-0.7-1-1-1.9-0.8c-0.2,0-0.4,0-0.6-0.2
				c-0.2-0.2-0.5-0.3-0.7-0.3c-0.4-0.1-0.7,0-1.1,0.1c-0.1,0-0.2,0-0.3-0.1c-0.4-0.3-0.8-0.5-1.3-0.5c-0.2,0-0.4,0.1-0.6,0.1
				c-0.1,0-0.1,0-0.2-0.1c-0.1-0.2-0.1-0.4-0.2-0.7c-0.1-0.3-0.2-0.5-0.2-0.8c0-0.1,0-0.1-0.1-0.2c0-0.1-0.1-0.3-0.1-0.4
				c0,0,0-0.1,0-0.1c-0.2-0.4-0.6-0.7-1.1-0.8c-0.2,0-0.4,0-0.6,0c-0.3,0.1-0.6,0.3-0.8,0.6c-0.1,0.2-0.2,0.4-0.2,0.6
				c0,0.2,0,0.4,0.1,0.6c0,0,0,0.1,0,0.1c0,0,0.1,0.1,0.1,0.2l0,0c0,0,0,0.1,0,0.1c0.2,0.9,0.5,1.9,0.7,2.8c0.1,0.6,0.3,1.2,0.4,1.8
				c-0.1,0-0.2-0.1-0.3-0.1C29,30,28.8,30,28.5,29.9c-0.7-0.1-1.6,0.3-1.9,0.9c-0.3,0.5-0.2,1,0.3,1.4c0.1,0.1,0.2,0.1,0.3,0.2
				c0.9,0.5,1.8,1.2,2.6,1.9c0.6,0.6,1.3,1.2,2.1,1.6c0,0,0.1,0.1,0.1,0.1c0.1,0.3,0.2,0.5,0.3,0.8c0.2,0.5,0.5,0.9,0.9,1.2
				c0.5,0.3,1.1,0.5,1.7,0.3c0.9-0.2,1.9-0.5,2.8-0.8c0.3-0.1,0.7-0.2,1-0.4c0.8-0.5,1.2-1.2,1.2-2.2c0-0.3,0-0.6,0-0.8
				C39.9,33.4,39.9,32.7,39.7,31.9z M38.9,33.5c-0.1,0.3-0.2,0.5-0.5,0.7c-0.1,0-0.2,0.1-0.3,0.2c-0.2,0.1-0.2,0.3-0.1,0.5
				c0.1,0.2,0.3,0.3,0.5,0.3c0.1,0,0.2,0,0.3-0.1c0.1,0,0.1,0,0.1,0.1c0,0.4-0.3,1-0.8,1.2c-0.6,0.2-1.3,0.4-1.8,0.6
				c-0.6,0.2-1.2,0.3-1.7,0.5c-0.4,0.1-1.2-0.1-1.4-0.6c-0.1-0.1-0.1-0.2-0.1-0.3c0-0.1,0-0.1,0.1-0.1c0.2,0,0.4-0.1,0.5-0.3
				c0.1-0.2,0-0.4-0.2-0.5c-0.1-0.1-0.2-0.1-0.3-0.2c-0.7-0.2-1.3-0.6-1.9-1.1c-0.7-0.6-1.3-1.2-2-1.7c-0.5-0.4-1-0.7-1.6-1
				c-0.3-0.2-0.3-0.3,0-0.5c0.3-0.2,0.5-0.2,0.8-0.2c0.5,0.1,1,0.3,1.5,0.5c0.1,0,0.1,0.1,0.1,0.1c0.1,0.2,0.1,0.4,0.2,0.5
				c0.1,0.2,0.4,0.3,0.6,0.2c0.2-0.1,0.4-0.3,0.3-0.5c-0.1-0.4-0.2-0.8-0.3-1.2c-0.3-1.2-0.6-2.4-0.9-3.5c-0.1-0.4-0.2-0.9-0.3-1.3
				c-0.1-0.3-0.1-0.6-0.2-0.9c0,0,0-0.1,0-0.1c0-0.1,0.1-0.3,0.3-0.3c0.2-0.1,0.4,0,0.5,0.2c0,0,0,0.1,0,0.1
				c0.1,0.2,0.2,0.4,0.2,0.6c0,0.1,0.1,0.3,0.1,0.4c0.5,1.6,0.9,3.2,1.4,4.7c0,0.1,0.1,0.2,0.1,0.3c0.1,0.3,0.5,0.4,0.7,0.1
				c0.1-0.1,0.2-0.3,0.2-0.5c-0.3-0.9-0.5-1.8-0.8-2.8c0-0.1,0-0.2,0.1-0.2c0.6-0.2,0.8,0,1,0.3c0.1,0.2,0.2,0.4,0.2,0.6
				c0.1,0.4,0.3,0.8,0.4,1.3c0.1,0.3,0.2,0.6,0.3,0.9c0.1,0.2,0.3,0.3,0.5,0.2c0.2-0.1,0.4-0.2,0.3-0.4c-0.1-0.4-0.2-0.8-0.3-1.2
				c-0.1-0.4-0.2-0.7-0.3-1.1c0-0.1,0-0.1,0.1-0.2c0.3-0.1,0.6-0.1,0.9,0.1c0.2,0.1,0.2,0.3,0.3,0.5c0.2,0.6,0.3,1.1,0.5,1.7
				c0.1,0.3,0.5,0.4,0.7,0.2c0.2-0.1,0.3-0.3,0.2-0.6c-0.1-0.4-0.2-0.8-0.3-1.3c-0.1-0.3,0-0.3,0.3-0.2c0.3,0.1,0.5,0.3,0.6,0.5
				c0.3,0.5,0.5,1.1,0.7,1.6c0.3,0.7,0.4,1.4,0.6,2.1C38.9,32.8,38.9,33.1,38.9,33.5z"/>
		</g>
		<g>
			<path class="st3" d="M30,23.4C29.9,23.4,29.9,23.4,30,23.4c-0.1,0-0.1,0-0.1,0c-0.5-0.1-0.9,0.2-1.2,0.6c0,0,0,0-0.1,0.1
				c0.2-0.3,0.5-0.5,0.8-0.7C29.5,23.3,29.8,23.3,30,23.4z"/>
		</g>
	</g>
</g>
</svg>
