<?xml version="1.0" encoding="utf-8"?>
<!-- Generator: Adobe Illustrator 24.1.3, SVG Export Plug-In . SVG Version: 6.00 Build 0)  -->
<svg version="1.1" id="Layer_1" xmlns="http://www.w3.org/2000/svg" xmlns:xlink="http://www.w3.org/1999/xlink" x="0px" y="0px"
	 viewBox="0 0 97 45" style="enable-background:new 0 0 97 45;" xml:space="preserve">
<style type="text/css">
	.st0{fill:#FFFFFF;}
	.st1{fill:#00AF4D;}
</style>
<g>
	<g>
		<path class="st0" d="M15.4,3.7c-0.1-0.1-0.2-0.1-0.4-0.1H3c-0.2,0-0.3,0-0.4,0.1c0,0.1,0,0.2,0,0.3v2.8c0,0.2,0.1,0.3,0.2,0.4
			c0,0.1,0.2,0.2,0.3,0.2h3.8v12.2c0,0.2,0.1,0.3,0.2,0.4s0.2,0.2,0.4,0.2h3.3c0.2,0,0.3-0.1,0.4-0.2c0.1-0.1,0.2-0.2,0.2-0.4V7.4
			h3.8c0.2,0,0.3-0.1,0.4-0.2c0.1-0.1,0.1-0.3,0.1-0.4V4C15.6,3.9,15.6,3.8,15.4,3.7z"/>
	</g>
	<g>
		<path class="st0" d="M29.2,7.1c-0.3-0.2-0.6-0.4-0.9-0.6s-0.6-0.3-0.8-0.4c-0.3-0.1-0.6-0.2-0.9-0.3c-0.3-0.1-0.7-0.1-1.1-0.1
			s-0.7,0.1-1,0.2s-0.6,0.3-0.8,0.5C23.4,6.5,23.2,6.7,23,7c-0.2,0.2-0.4,0.5-0.7,0.7c-0.1-0.2-0.2-0.4-0.2-0.6
			C22,6.9,22,6.7,21.9,6.5s-0.2-0.3-0.3-0.4c-0.1-0.1-0.3-0.2-0.4-0.2h-1.7c-0.1,0-0.2,0-0.3,0.1c-0.1,0-0.2,0.1-0.3,0.2
			c-0.1,0.1-0.2,0.2-0.2,0.3c-0.1,0.1-0.1,0.2-0.1,0.4v12.5c0,0.6,0.3,0.9,0.9,0.9H22c0.3,0,0.5-0.1,0.7-0.2
			c0.1-0.1,0.2-0.4,0.2-0.6v-8.1c0.2-0.3,0.3-0.5,0.5-0.7s0.3-0.4,0.5-0.5s0.4-0.3,0.6-0.3c0.2-0.1,0.5-0.1,0.8-0.1
			c0.4,0,0.8,0.1,1.1,0.2c0.3,0.2,0.7,0.4,1,0.7c0.2,0.1,0.4,0.1,0.5,0.1c0.3,0,0.5-0.1,0.7-0.4l1-1.7c0.1-0.2,0.2-0.4,0.2-0.6
			C29.7,7.5,29.6,7.3,29.2,7.1z"/>
	</g>
	<g>
		<path class="st0" d="M45.6,6.4c0-0.1-0.1-0.2-0.2-0.3C45.3,6,45.2,6,45.1,5.9c-0.1,0-0.2,0-0.3,0h-1.7c-0.2,0-0.3,0-0.3,0
			c-0.1,0-0.2,0.1-0.2,0.1c-0.1,0.1-0.1,0.1-0.2,0.3c0,0.1-0.1,0.3-0.2,0.5l-0.3,1c-0.2-0.3-0.4-0.6-0.7-0.8
			c-0.3-0.3-0.6-0.5-0.9-0.6C40,6.1,39.6,6,39.2,5.9c-0.4-0.1-0.8-0.2-1.3-0.2c-1,0-2,0.2-2.8,0.6c-0.9,0.4-1.7,0.9-2.3,1.6
			c-0.7,0.7-1.2,1.4-1.5,2.3C30.8,11,30.6,12,30.6,13c0,0.7,0.1,1.3,0.3,2c0.2,0.6,0.4,1.2,0.7,1.8c0.3,0.5,0.7,1,1.1,1.5
			c0.4,0.4,0.9,0.8,1.5,1.1c0.5,0.3,1.1,0.6,1.7,0.7c0.6,0.2,1.3,0.3,1.9,0.3c0.4,0,0.7,0,1.1-0.1c0.4-0.1,0.7-0.2,1-0.4
			c0.3-0.2,0.6-0.3,0.8-0.5c0.3-0.2,0.5-0.4,0.7-0.6l0.1,0.5c0.1,0.1,0.1,0.2,0.1,0.4c0,0.1,0.1,0.2,0.2,0.3
			c0.1,0.1,0.1,0.1,0.2,0.2c0.1,0,0.2,0.1,0.4,0.1h2.2c0.1,0,0.2,0,0.3,0s0.2-0.1,0.3-0.2s0.2-0.2,0.2-0.3c0.1-0.1,0.1-0.2,0.1-0.4
			V6.7C45.6,6.6,45.6,6.5,45.6,6.4z M41.1,14.4c-0.2,0.4-0.4,0.8-0.7,1.1s-0.7,0.6-1.1,0.7c-0.4,0.2-0.9,0.3-1.4,0.3
			s-0.9-0.1-1.3-0.3c-0.4-0.2-0.7-0.4-1-0.7s-0.5-0.7-0.6-1.1c-0.2-0.4-0.2-0.9-0.2-1.4s0.1-0.9,0.2-1.4c0.2-0.4,0.4-0.8,0.6-1.1
			c0.3-0.3,0.6-0.6,1-0.8s0.8-0.3,1.3-0.3s1,0.1,1.4,0.3s0.8,0.4,1.1,0.8c0.3,0.3,0.6,0.7,0.7,1.1c0.2,0.4,0.3,0.9,0.3,1.4
			C41.4,13.5,41.3,14,41.1,14.4z"/>
	</g>
	<g>
		<path class="st0" d="M62.5,2.2C62.4,2.1,62.3,2,62.3,2c-0.1-0.1-0.2-0.1-0.3-0.2c-0.1,0-0.2-0.1-0.3-0.1h-2.5
			c-0.3,0-0.5,0.1-0.7,0.2c-0.1,0.2-0.2,0.4-0.2,0.6v4.6c-0.2-0.2-0.4-0.4-0.7-0.6c-0.2-0.2-0.5-0.3-0.8-0.5
			c-0.3-0.1-0.6-0.2-0.9-0.3c-0.3-0.1-0.7-0.1-1.1-0.1c-1,0-1.9,0.2-2.8,0.6c-0.8,0.4-1.6,0.9-2.2,1.6c-0.6,0.7-1.1,1.4-1.4,2.3
			C48,11,47.9,12,47.9,13s0.2,2,0.5,2.9s0.8,1.7,1.4,2.3c0.6,0.7,1.3,1.2,2.2,1.6c0.8,0.4,1.8,0.6,2.8,0.6c0.4,0,0.8-0.1,1.1-0.1
			c0.3-0.1,0.7-0.2,1-0.4c0.3-0.2,0.6-0.3,0.8-0.5c0.3-0.2,0.5-0.4,0.7-0.6l0.2,0.5c0.1,0.1,0.1,0.3,0.2,0.4c0,0.1,0.1,0.2,0.2,0.3
			c0,0,0,0,0.1,0s0.2,0.1,0.3,0.1h2.2c0.6,0,0.9-0.3,0.9-0.9V2.6C62.6,2.5,62.5,2.3,62.5,2.2z M58.6,13.2c0,0.5-0.1,0.9-0.3,1.3
			c-0.2,0.4-0.4,0.8-0.8,1.1s-0.7,0.5-1.1,0.7c-0.4,0.2-0.9,0.3-1.3,0.3c-0.5,0-0.9-0.1-1.3-0.3c-0.4-0.2-0.7-0.4-1-0.7
			s-0.5-0.7-0.7-1.1c-0.2-0.4-0.2-0.9-0.2-1.4s0.1-0.9,0.2-1.4c0.2-0.4,0.4-0.8,0.7-1.1s0.6-0.6,1-0.8s0.8-0.3,1.3-0.3
			s1,0.1,1.4,0.3s0.8,0.4,1.1,0.8c0.3,0.3,0.6,0.7,0.7,1.1C58.5,12.1,58.6,12.6,58.6,13.2C58.6,13.1,58.6,13.2,58.6,13.2z"/>
	</g>
	<g>
		<path class="st0" d="M79,10.7c-0.2-0.6-0.4-1.1-0.7-1.6c-0.3-0.5-0.7-0.9-1.1-1.4c-0.4-0.4-0.9-0.8-1.4-1.1
			c-0.5-0.3-1.1-0.5-1.6-0.7c-0.6-0.2-1.2-0.2-1.8-0.2c-0.7,0-1.3,0.1-1.9,0.3c-0.6,0.2-1.2,0.4-1.7,0.7c-0.5,0.3-1,0.7-1.4,1.2
			s-0.8,0.9-1.1,1.5c-0.3,0.5-0.5,1.1-0.7,1.7c-0.2,0.6-0.2,1.3-0.2,1.9c0,1,0.2,2,0.6,2.9c0.4,0.9,0.9,1.7,1.6,2.3
			c0.7,0.7,1.5,1.2,2.4,1.5c0.9,0.4,1.9,0.6,2.9,0.6c0.9,0,1.8-0.2,2.6-0.5c0.8-0.3,1.6-0.8,2.2-1.4c0.1-0.1,0.2-0.2,0.3-0.3
			c0.1-0.1,0.1-0.2,0.1-0.4c0-0.1,0-0.2,0-0.2c0-0.1-0.1-0.2-0.2-0.3l-1.2-1.3c-0.1-0.1-0.2-0.2-0.3-0.3c-0.1-0.1-0.2-0.1-0.3-0.1
			c-0.1,0-0.2,0-0.3,0.1c-0.1,0.1-0.2,0.1-0.3,0.2c-0.1,0.1-0.3,0.3-0.5,0.4s-0.5,0.2-0.7,0.3c-0.3,0.1-0.5,0.2-0.8,0.2
			c-0.3,0.1-0.6,0.1-0.8,0.1c-0.3,0-0.6,0-0.9-0.1s-0.7-0.2-0.9-0.4c-0.3-0.2-0.6-0.4-0.8-0.8c-0.2-0.3-0.4-0.7-0.4-1.2h8
			c0.5,0,0.8,0,1.1-0.1c0.2-0.1,0.4-0.2,0.5-0.3s0.2-0.3,0.2-0.6c0-0.2,0-0.6,0-0.9C79.3,11.8,79.2,11.2,79,10.7z M69.6,11.2
			c0.1-0.3,0.3-0.5,0.5-0.7s0.4-0.5,0.6-0.7s0.5-0.3,0.8-0.5c0.3-0.1,0.6-0.2,0.8-0.2c0.4,0,0.8,0.1,1,0.2c0.3,0.1,0.6,0.3,0.8,0.4
			c0.2,0.2,0.4,0.4,0.6,0.6c0.2,0.2,0.4,0.5,0.5,0.8L69.6,11.2L69.6,11.2z"/>
	</g>
	<g>
		<path class="st0" d="M14.9,23.3c-0.1-0.1-0.2-0.2-0.4-0.2H3.8c-0.1,0-0.2,0.1-0.3,0.2s-0.1,0.2-0.1,0.4v15.6
			c0,0.3,0.1,0.4,0.4,0.5h3.4c0.3,0,0.5-0.2,0.5-0.5v-5.1h5c0.1,0,0.3-0.1,0.3-0.2c0.1-0.1,0.1-0.2,0.1-0.4v-2.7
			c0-0.2,0-0.3-0.1-0.4s-0.2-0.1-0.4-0.1h-5v-3.5h6.8c0.2,0,0.3-0.1,0.4-0.2c0.1-0.1,0.1-0.2,0.1-0.4v-2.8
			C15,23.5,15,23.4,14.9,23.3z"/>
	</g>
	<g>
		<path class="st0" d="M29.6,29.7c-0.4-0.9-0.9-1.7-1.6-2.3c-0.7-0.7-1.4-1.2-2.3-1.5c-0.9-0.4-1.8-0.6-2.8-0.6
			c-0.7,0-1.3,0.1-2,0.3c-0.6,0.2-1.2,0.4-1.8,0.7c-0.5,0.3-1,0.7-1.5,1.1c-0.4,0.4-0.8,0.9-1.1,1.5c-0.3,0.5-0.6,1.1-0.7,1.8
			s-0.3,1.3-0.3,2s0.1,1.3,0.3,2s0.4,1.2,0.7,1.8c0.3,0.5,0.7,1,1.1,1.5c0.4,0.4,0.9,0.8,1.5,1.1c0.5,0.3,1.1,0.6,1.8,0.7
			c0.6,0.2,1.3,0.3,2,0.3s1.3-0.1,1.9-0.3s1.2-0.4,1.7-0.7s1-0.7,1.5-1.1c0.4-0.4,0.8-0.9,1.1-1.5c0.3-0.5,0.6-1.1,0.7-1.8
			c0.2-0.6,0.3-1.3,0.3-2C30.2,31.6,30,30.6,29.6,29.7z M25.8,34c-0.2,0.4-0.4,0.8-0.6,1.1c-0.3,0.3-0.6,0.6-1,0.7
			c-0.4,0.2-0.8,0.3-1.3,0.3S22,36,21.6,35.8s-0.7-0.4-1-0.7S20.1,34.4,20,34c-0.2-0.4-0.2-0.9-0.2-1.4s0.1-0.9,0.2-1.4
			c0.2-0.4,0.4-0.8,0.6-1.1c0.3-0.3,0.6-0.6,1-0.8c0.4-0.2,0.8-0.3,1.3-0.3s0.9,0.1,1.3,0.3c0.4,0.2,0.7,0.4,1,0.8
			c0.3,0.3,0.5,0.7,0.6,1.1s0.2,0.9,0.2,1.4S26,33.5,25.8,34z"/>
	</g>
	<g>
		<path class="st0" d="M43,26.7c-0.3-0.2-0.6-0.4-0.9-0.6c-0.3-0.2-0.6-0.3-0.8-0.4c-0.3-0.1-0.6-0.2-0.9-0.3
			c-0.3-0.1-0.7-0.1-1.1-0.1c-0.4,0-0.7,0.1-1,0.2s-0.6,0.3-0.8,0.4c-0.3,0.2-0.5,0.4-0.7,0.6s-0.4,0.5-0.7,0.7
			c-0.1-0.2-0.2-0.4-0.2-0.6c-0.1-0.2-0.1-0.4-0.2-0.6c-0.1-0.2-0.2-0.3-0.3-0.4s-0.3-0.2-0.4-0.2h-1.7c-0.1,0-0.2,0-0.3,0.1
			c-0.1,0-0.2,0.1-0.3,0.2s-0.2,0.2-0.2,0.3c-0.1,0.1-0.1,0.2-0.1,0.4v12.5c0,0.6,0.3,0.9,0.9,0.9h2.5c0.3,0,0.5-0.1,0.7-0.2
			c0.1-0.1,0.2-0.4,0.2-0.6v-8.1c0.2-0.3,0.3-0.5,0.5-0.7s0.3-0.4,0.5-0.5c0.2-0.2,0.4-0.3,0.6-0.3c0.2-0.1,0.5-0.1,0.8-0.1
			c0.4,0,0.8,0.1,1.1,0.2c0.3,0.2,0.7,0.4,1,0.7c0.2,0.1,0.4,0.1,0.5,0.1c0.3,0,0.5-0.1,0.7-0.4l1-1.7c0.1-0.2,0.2-0.4,0.2-0.6
			C43.5,27.1,43.3,26.9,43,26.7z"/>
	</g>
	<g>
		<path class="st0" d="M57.9,30.2c-0.2-0.6-0.4-1.1-0.7-1.6s-0.7-0.9-1.1-1.4c-0.4-0.4-0.9-0.8-1.4-1.1c-0.5-0.3-1.1-0.5-1.6-0.7
			c-0.6-0.2-1.2-0.2-1.8-0.2c-0.7,0-1.3,0.1-1.9,0.3c-0.6,0.2-1.2,0.4-1.7,0.7c-0.5,0.3-1,0.7-1.4,1.2s-0.8,0.9-1.1,1.5
			c-0.3,0.5-0.5,1.1-0.7,1.7s-0.2,1.2-0.2,1.9c0,1,0.2,2,0.6,2.9c0.4,0.9,0.9,1.7,1.6,2.3c0.7,0.7,1.5,1.2,2.4,1.5
			c0.9,0.4,1.9,0.6,2.9,0.6c0.9,0,1.8-0.2,2.6-0.5s1.6-0.8,2.2-1.4c0.1-0.1,0.2-0.2,0.3-0.3s0.1-0.2,0.1-0.4c0-0.1,0-0.2,0-0.2
			c0-0.1-0.1-0.2-0.2-0.3l-1.2-1.3c-0.1-0.1-0.2-0.2-0.3-0.3S55.1,35,55,35s-0.2,0-0.3,0.1c-0.1,0-0.2,0.1-0.3,0.2
			c-0.1,0.1-0.3,0.3-0.5,0.4c-0.2,0.1-0.5,0.2-0.7,0.3c-0.3,0.1-0.5,0.2-0.8,0.2c-0.3,0.1-0.6,0.1-0.8,0.1c-0.3,0-0.6,0-0.9-0.1
			c-0.3-0.1-0.7-0.2-0.9-0.4c-0.3-0.2-0.6-0.4-0.8-0.8c-0.2-0.3-0.4-0.7-0.5-1.2h8c0.5,0,0.8,0,1.1-0.1c0.2-0.1,0.4-0.2,0.5-0.3
			s0.2-0.3,0.2-0.6c0-0.2,0-0.6,0-0.9C58.1,31.4,58,30.8,57.9,30.2z M48.4,30.7c0.1-0.3,0.3-0.5,0.5-0.7s0.4-0.5,0.6-0.7
			c0.2-0.2,0.5-0.3,0.8-0.5c0.3-0.1,0.6-0.2,0.8-0.2c0.4,0,0.8,0.1,1.1,0.2s0.6,0.3,0.8,0.4c0.2,0.2,0.4,0.4,0.6,0.6
			c0.2,0.3,0.4,0.5,0.5,0.8h-5.7V30.7z"/>
	</g>
	<g>
		<path class="st0" d="M72.3,38.9c-0.1-0.1-0.1-0.3-0.2-0.4l-4.3-6l-0.1-0.1l4.4-6.2c0.1-0.1,0.1-0.2,0.1-0.3c0-0.1,0-0.2-0.1-0.2
			c0-0.1-0.1-0.1-0.2-0.2c-0.1,0-0.2-0.1-0.3-0.1h-3.5c-0.1,0-0.3,0-0.4,0.1s-0.2,0.2-0.3,0.3l-0.1,0.1c-0.1,0.2-0.3,0.5-0.5,0.8
			s-0.4,0.6-0.6,1c-0.2,0.3-0.4,0.6-0.6,1c-0.2,0.3-0.3,0.6-0.5,0.8l-0.2-0.2l-2-3.2c-0.1-0.2-0.2-0.3-0.3-0.4s-0.2-0.2-0.3-0.2
			h-3.5c-0.2,0-0.3,0-0.4,0.1c-0.1,0.1-0.1,0.1-0.1,0.2s0,0.2,0.1,0.3c0.1,0.1,0.1,0.2,0.2,0.3l4.2,6l0.1,0.1l-2.3,3.1l-2.5,3.5v0.1
			v0.1c0.1,0.1,0.1,0.2,0.2,0.2c0.1,0,0.2,0.1,0.3,0.1h3.9c0.1,0,0.1,0,0.2,0l0.1-0.2l2.4-3.9l0.2,0.3l1.8,3.3
			c0.2,0.4,0.4,0.6,0.7,0.6h3.6c0.2,0,0.4,0,0.5-0.1s0.2-0.2,0.2-0.3C72.4,39.1,72.4,39,72.3,38.9z"/>
	</g>
	<path class="st1" d="M91.5,8l-4.9,2.7l2.2,1.4L76.5,30.7c-0.4,0.5-1.1,0.5-1.5-0.1L71.4,24c-0.5-0.9-1.8-1-2.4-0.1l-1.4,2L67.5,26
		l-2.3,3.2L63,32.5l-2.2,3.2l-2.5,3.5L56.4,42c-0.5,0.7,0.2,1.6,1,1.3l4.1-1.6c0.2-0.1,0.3-0.2,0.4-0.3l1-1.6l0.1-0.2l2.4-3.9
		l0.2,0.3l2.3-3.3l1.5-2.2c0.4-0.5,1.1-0.5,1.4,0.1l4.1,7.3c0.3,0.6,1.1,0.6,1.4,0.1l15.6-23.5l2.5,1.6v-5.5v-4L91.5,8z"/>
	<path class="st0" d="M63.1,39.5"/>
</g>
</svg>
