<?xml version="1.0" encoding="utf-8"?>
<!-- Generator: Adobe Illustrator 24.1.3, SVG Export Plug-In . SVG Version: 6.00 Build 0)  -->
<svg version="1.1" id="Layer_1" xmlns="http://www.w3.org/2000/svg" xmlns:xlink="http://www.w3.org/1999/xlink" x="0px" y="0px"
	 viewBox="0 0 90 90" style="enable-background:new 0 0 90 90;" xml:space="preserve">
<style type="text/css">
	.st0{fill:#192E58;}
	.st1{fill:#00AF4D;}
	.st2{fill:#2A2765;}
	.st3{fill:#FFFFFF;}
	.st4{fill:#004321;}
	.st5{fill:#00AB4E;}
	.st6{fill:#333333;}
</style>
<g>
	<g>
		<g>
			<path class="st3" d="M28.8,34.9c-0.1-0.1-0.1-0.2-0.2-0.3l-3.4-4.7l3.4-4.8c0.1-0.1,0.1-0.2,0.1-0.2c0-0.1,0-0.1,0-0.2
				c0,0-0.1-0.1-0.2-0.1c-0.1,0-0.1,0-0.2,0h-2.8c-0.1,0-0.2,0-0.3,0.1c-0.1,0.1-0.2,0.2-0.3,0.3c-0.1,0.2-0.2,0.4-0.4,0.6
				c-0.1,0.2-0.3,0.5-0.4,0.8c-0.2,0.3-0.3,0.5-0.5,0.8c-0.1,0.2-0.3,0.4-0.4,0.6l-1.7-2.7c-0.1-0.1-0.2-0.2-0.2-0.3
				c-0.1-0.1-0.2-0.1-0.3-0.1h-2.7c-0.1,0-0.3,0-0.3,0.1c-0.1,0-0.1,0.1-0.1,0.2c0,0.1,0,0.1,0,0.2c0,0.1,0.1,0.2,0.1,0.2l3.3,4.7
				l-3.5,4.9c0,0-0.1,0.1-0.1,0.2c0,0.1-0.1,0.1,0,0.2l0,0.1c0,0.1,0.1,0.2,0.1,0.2c0.1,0,0.1,0.1,0.2,0.1h3c0.1,0,0.2,0,0.3-0.1
				c0.1-0.1,0.2-0.2,0.2-0.3l1.6-2.8l1.5,2.8c0.1,0.3,0.3,0.5,0.6,0.5h2.8c0.2,0,0.3,0,0.4-0.1c0.1-0.1,0.1-0.1,0.1-0.2
				C28.9,35.1,28.9,35,28.8,34.9z"/>
		</g>
		<g>
			<path class="st3" d="M27.2,40.3h-7.6c-0.7,0-1.3-0.6-1.3-1.3v0c0-0.7,0.6-1.3,1.3-1.3h7.6c0.7,0,1.3,0.6,1.3,1.3v0
				C28.5,39.7,27.9,40.3,27.2,40.3z"/>
		</g>
		<g>
			<path class="st3" d="M41.9,34.9c0-0.1-0.1-0.2-0.2-0.3l-3.4-4.7l3.4-4.8c0.1-0.1,0.1-0.2,0.1-0.2c0-0.1,0-0.1,0-0.2
				c0,0-0.1-0.1-0.1-0.1c-0.1,0-0.1,0-0.2,0h-2.8c-0.1,0-0.2,0-0.3,0.1c-0.1,0.1-0.2,0.2-0.3,0.3c-0.1,0.2-0.2,0.4-0.4,0.6
				s-0.3,0.5-0.5,0.8c-0.1,0.3-0.3,0.5-0.4,0.8c-0.1,0.2-0.3,0.4-0.4,0.6l-1.7-2.7c-0.1-0.1-0.2-0.2-0.2-0.3
				c-0.1-0.1-0.2-0.1-0.3-0.1h-2.7c-0.2,0-0.3,0-0.3,0.1c-0.1,0-0.1,0.1-0.1,0.2c0,0.1,0,0.1,0,0.2c0,0.1,0.1,0.2,0.2,0.2l3.3,4.7
				l-3.5,4.9c0,0-0.1,0.1-0.1,0.2c0,0.1-0.1,0.1,0,0.2l0,0.1c0,0.1,0.1,0.2,0.1,0.2c0.1,0,0.1,0.1,0.2,0.1h3c0.1,0,0.2,0,0.3-0.1
				c0.1-0.1,0.2-0.2,0.2-0.3l1.6-2.8l1.5,2.8c0.1,0.3,0.3,0.5,0.6,0.5h2.8c0.2,0,0.3,0,0.4-0.1s0.1-0.1,0.1-0.2
				C42,35.1,42,35,41.9,34.9z"/>
		</g>
		<g>
			<path class="st3" d="M40.3,40.3h-7.6c-0.7,0-1.3-0.6-1.3-1.3v0c0-0.7,0.6-1.3,1.3-1.3h7.6c0.7,0,1.3,0.6,1.3,1.3v0
				C41.6,39.7,41,40.3,40.3,40.3z"/>
		</g>
		<g>
			<path class="st3" d="M53.6,40.3H46c-0.7,0-1.3-0.6-1.3-1.3v0c0-0.7,0.6-1.3,1.3-1.3h7.6c0.7,0,1.3,0.6,1.3,1.3v0
				C54.9,39.7,54.3,40.3,53.6,40.3z"/>
		</g>
		<g>
			<path class="st3" d="M66.9,40.3h-7.6c-0.7,0-1.3-0.6-1.3-1.3v0c0-0.7,0.6-1.3,1.3-1.3h7.6c0.7,0,1.3,0.6,1.3,1.3v0
				C68.2,39.7,67.6,40.3,66.9,40.3z"/>
		</g>
		<g>
			<path class="st3" d="M9.7,18.4v27.9H54c-0.1-0.6-0.3-1.2-0.4-1.7c0-0.1,0-0.2,0-0.3H11.7V20.4h66.6v23.9H55.1
				c0.2,0.4,0.3,0.8,0.4,1.2c0.1,0.2,0.2,0.5,0.2,0.8h24.5V18.4H9.7z"/>
		</g>
		<g>
			<g>
				<path class="st3" d="M74.2,58.8c-0.5-1.8-1.1-3.5-1.7-5.2c-0.3-0.8-0.7-1.7-1.2-2.5c-0.9-1.3-2.1-2-3.7-1.7
					c-0.4,0.1-0.8,0-1.1-0.3c-0.4-0.4-0.9-0.6-1.5-0.7c-0.7-0.1-1.4,0-2.1,0.3c-0.2,0.1-0.4,0-0.5-0.1c-0.7-0.7-1.5-1-2.5-1
					c-0.4,0-0.9,0.1-1.3,0.2c-0.2,0-0.3,0-0.3-0.2c-0.1-0.4-0.2-0.9-0.4-1.3c-0.1-0.5-0.3-1.1-0.5-1.6c0-0.1-0.1-0.3-0.1-0.4
					c-0.1-0.3-0.2-0.6-0.2-0.9c0-0.1,0-0.1,0-0.2c-0.5-0.8-1.2-1.4-2.1-1.6c-0.4-0.1-0.8-0.1-1.3,0.1c-0.7,0.2-1.2,0.7-1.6,1.3
					c-0.2,0.4-0.3,0.8-0.4,1.3c0,0.4,0,0.8,0.1,1.2c0,0,0,0.1,0.1,0.2c0.1,0.1,0.1,0.2,0.1,0.3l0,0c0,0.1,0,0.2,0.1,0.2
					c0.4,1.8,0.9,3.7,1.3,5.5c0.3,1.2,0.6,2.3,0.8,3.5c-0.2-0.1-0.4-0.1-0.6-0.2c-0.5-0.2-1-0.3-1.6-0.4c-1.5-0.3-3.2,0.5-3.9,1.8
					c-0.6,1.1-0.5,2,0.5,2.7c0.2,0.2,0.4,0.3,0.6,0.4c1.8,1.1,3.5,2.3,5.1,3.7c1.3,1.2,2.6,2.4,4.1,3.2c0.1,0,0.1,0.1,0.1,0.2
					c0.2,0.5,0.4,1.1,0.5,1.6c0.3,1,0.9,1.9,1.9,2.4c1,0.6,2.2,0.9,3.3,0.6c1.9-0.4,3.7-1,5.5-1.6c0.7-0.2,1.4-0.4,2-0.7
					c1.6-1,2.4-2.4,2.4-4.3c0-0.6,0-1.1,0.1-1.7C74.6,61.7,74.6,60.3,74.2,58.8z M72.6,61.9c-0.1,0.6-0.5,1-1,1.3
					c-0.2,0.1-0.4,0.2-0.6,0.3c-0.4,0.2-0.5,0.7-0.3,1.1c0.2,0.4,0.6,0.6,1,0.5c0.2,0,0.4-0.1,0.5-0.1c0.2,0,0.2,0,0.2,0.2
					c0.1,0.9-0.7,2-1.5,2.4c-1.2,0.5-2.5,0.8-3.5,1.1c-1.3,0.4-2.3,0.7-3.3,1c-0.7,0.2-2.3-0.3-2.8-1.1c-0.1-0.2-0.2-0.4-0.3-0.6
					c-0.1-0.2,0-0.2,0.2-0.2c0.5,0,0.7-0.2,0.9-0.7c0.2-0.4,0.1-0.8-0.3-1c-0.2-0.2-0.4-0.2-0.7-0.3c-1.4-0.4-2.7-1.2-3.8-2.2
					c-1.3-1.1-2.5-2.3-3.9-3.4c-1-0.8-2.1-1.4-3.1-2.1c-0.7-0.4-0.6-0.5,0-1c0.5-0.4,1.1-0.5,1.7-0.3c1,0.2,1.9,0.7,2.9,1
					c0.1,0,0.1,0.1,0.1,0.2c0.1,0.3,0.2,0.7,0.4,1.1c0.2,0.4,0.7,0.6,1.1,0.5c0.5-0.2,0.7-0.6,0.6-1.1c-0.2-0.8-0.4-1.6-0.6-2.4
					c-0.7-2.3-1.3-4.7-1.9-7c-0.2-0.9-0.4-1.8-0.6-2.6c-0.1-0.6-0.3-1.2-0.4-1.7c0-0.1,0-0.2,0-0.3c0.1-0.3,0.3-0.5,0.6-0.6
					c0.4-0.1,0.8,0,0.9,0.4c0,0.1,0,0.1,0.1,0.2c0.2,0.4,0.3,0.8,0.4,1.2c0.1,0.2,0.2,0.5,0.2,0.8c0.9,3.1,1.8,6.3,2.8,9.4
					c0.1,0.2,0.1,0.4,0.2,0.7c0.2,0.6,1,0.7,1.4,0.3c0.3-0.3,0.4-0.6,0.3-1c-0.6-1.8-1.1-3.7-1.6-5.5c-0.1-0.2,0-0.3,0.2-0.4
					c1.1-0.3,1.7,0.1,2,0.6c0.2,0.4,0.3,0.8,0.5,1.2c0.3,0.8,0.5,1.7,0.8,2.5c0.2,0.6,0.4,1.2,0.6,1.8c0.1,0.4,0.5,0.6,1,0.5
					c0.5-0.1,0.8-0.4,0.7-0.9c-0.2-0.8-0.4-1.6-0.6-2.5c-0.2-0.7-0.4-1.4-0.6-2.1c0-0.2,0-0.2,0.2-0.3c0.6-0.2,1.2-0.1,1.8,0.3
					c0.3,0.2,0.5,0.6,0.6,1c0.3,1.1,0.7,2.2,1,3.3c0.1,0.5,1,0.8,1.4,0.4c0.3-0.3,0.6-0.6,0.4-1.1c-0.3-0.8-0.5-1.7-0.7-2.5
					c-0.1-0.5,0-0.6,0.5-0.5c0.5,0.1,0.9,0.5,1.2,1c0.6,1,1,2.1,1.5,3.2c0.5,1.4,0.9,2.8,1.2,4.2C72.6,60.5,72.7,61.2,72.6,61.9z"/>
			</g>
			<g>
				<path class="st3" d="M54.9,41.7c0,0-0.1,0-0.1,0c-0.1,0-0.1,0-0.2,0c-1.1-0.1-1.8,0.4-2.5,1.2c0,0-0.1,0.1-0.1,0.1
					c0.3-0.6,0.9-1.1,1.6-1.3C54,41.6,54.5,41.6,54.9,41.7z"/>
			</g>
		</g>
	</g>
</g>
</svg>
