<?xml version="1.0" encoding="utf-8"?>
<!-- Generator: Adobe Illustrator 24.1.3, SVG Export Plug-In . SVG Version: 6.00 Build 0)  -->
<svg version="1.1" id="Layer_1" xmlns="http://www.w3.org/2000/svg" xmlns:xlink="http://www.w3.org/1999/xlink" x="0px" y="0px"
	 viewBox="0 0 50 50" style="enable-background:new 0 0 50 50;" xml:space="preserve">
<style type="text/css">
	.st0{fill:#192E58;}
	.st1{fill:#00AF4D;}
	.st2{fill:#2A2765;}
	.st3{fill:#FFFFFF;}
	.st4{fill:#004321;}
	.st5{fill:#00AB4E;}
	.st6{fill:#333333;}
</style>
<g>
	<path class="st3" d="M42.7,32H7.3V18h35.5V32z M8.3,31h33.5V19H8.3V31z"/>
</g>
<g>
	<g>
		<path class="st3" d="M15,21.6c0-0.1,0-0.1,0.1-0.2c0,0,0.1-0.1,0.2-0.1h3.2c0.3,0,0.5,0.1,0.8,0.2c0.2,0.1,0.5,0.3,0.7,0.4
			c0.2,0.2,0.3,0.4,0.4,0.7c0.1,0.2,0.2,0.5,0.2,0.8c0,0.2,0,0.5-0.1,0.7c-0.1,0.2-0.2,0.4-0.3,0.6c0.2,0.2,0.4,0.5,0.5,0.7
			c0.1,0.3,0.2,0.6,0.2,0.9c0,0.3-0.1,0.6-0.2,0.8c-0.1,0.3-0.3,0.5-0.5,0.7c-0.2,0.2-0.4,0.4-0.7,0.5s-0.5,0.2-0.8,0.2h-3.4
			c-0.1,0-0.1,0-0.2-0.1c0,0-0.1-0.1-0.1-0.2V21.6z M18.6,23.5c0-0.1,0-0.2-0.1-0.3c0-0.1-0.1-0.2-0.1-0.2c-0.1-0.1-0.1-0.1-0.2-0.2
			s-0.2-0.1-0.3-0.1h-1v1.4h1c0.1,0,0.2,0,0.3,0c0.1,0,0.2-0.1,0.2-0.1c0.1-0.1,0.1-0.1,0.2-0.2C18.6,23.7,18.6,23.6,18.6,23.5z
			 M18.9,26.3c0-0.1,0-0.2-0.1-0.3c0-0.1-0.1-0.2-0.2-0.3c-0.1-0.1-0.1-0.1-0.2-0.2c-0.1,0-0.2-0.1-0.3-0.1h-1.3v1.6h1.3
			c0.1,0,0.2,0,0.3-0.1c0.1,0,0.2-0.1,0.2-0.2c0.1-0.1,0.1-0.2,0.2-0.3C18.9,26.5,18.9,26.4,18.9,26.3z"/>
	</g>
	<g>
		<path class="st3" d="M23.6,25.7c0,0.2,0,0.4,0.1,0.6c0.1,0.2,0.2,0.3,0.3,0.4s0.2,0.2,0.4,0.2c0.1,0,0.3,0.1,0.4,0.1
			c0.2,0,0.3,0,0.5-0.1s0.3-0.1,0.4-0.2c0.1-0.1,0.2-0.2,0.3-0.4c0.1-0.2,0.1-0.3,0.1-0.6v-4c0-0.1,0-0.1,0.1-0.1
			c0,0,0.1-0.1,0.2-0.1h1.4c0.1,0,0.1,0,0.2,0.1c0,0,0.1,0.1,0.1,0.1v4c0,0.6-0.1,1-0.2,1.4c-0.2,0.4-0.4,0.7-0.7,0.9
			c-0.3,0.2-0.6,0.4-1,0.5s-0.7,0.2-1.1,0.2s-0.8-0.1-1.1-0.2s-0.7-0.3-1-0.5c-0.3-0.2-0.5-0.5-0.7-0.9c-0.2-0.4-0.2-0.8-0.2-1.4v-4
			c0-0.1,0-0.1,0.1-0.1c0,0,0.1-0.1,0.1-0.1h1.4c0,0,0.1,0,0.1,0.1c0.1,0,0.1,0.1,0.1,0.2V25.7z"/>
	</g>
	<g>
		<path class="st3" d="M31.7,24l1.2-2.5c0,0,0-0.1,0-0.1c0,0,0,0,0,0c0,0,0,0,0,0c0,0,0,0,0.1,0h1.8c0,0,0,0,0.1,0c0,0,0,0,0,0
			c0,0,0,0.1-0.1,0.1l-2.3,4v2.7c0,0.1-0.1,0.2-0.2,0.2H31c-0.1,0-0.1,0-0.1-0.1c0,0-0.1-0.1-0.1-0.2v-2.7l-2.3-4
			c0,0-0.1-0.1-0.1-0.1c0,0,0,0,0,0c0,0,0,0,0.1,0h1.8c0,0,0,0,0.1,0s0,0,0,0c0,0,0,0,0,0c0,0,0,0,0.1,0.1L31.7,24z"/>
	</g>
</g>
</svg>
