<?xml version="1.0" encoding="utf-8"?>
<!-- Generator: Adobe Illustrator 24.1.3, SVG Export Plug-In . SVG Version: 6.00 Build 0)  -->
<svg version="1.1" id="Layer_1" xmlns="http://www.w3.org/2000/svg" xmlns:xlink="http://www.w3.org/1999/xlink" x="0px" y="0px"
	 viewBox="0 0 90 90" style="enable-background:new 0 0 90 90;" xml:space="preserve">
<style type="text/css">
	.st0{fill:#192E58;}
	.st1{fill:#00AF4D;}
	.st2{fill:#2A2765;}
	.st3{fill:#FFFFFF;}
	.st4{fill:#004321;}
	.st5{fill:#00AB4E;}
	.st6{fill:#333333;}
</style>
<g>
	<g>
		<g>
			<g>
				<path class="st3" d="M28.9,43.8c-7.2,0-13.1-5.9-13.1-13.1s5.9-13.1,13.1-13.1c7.2,0,13.1,5.9,13.1,13.1S36.1,43.8,28.9,43.8z
					 M28.9,19.3c-6.3,0-11.5,5.1-11.5,11.5c0,6.3,5.1,11.5,11.5,11.5s11.5-5.1,11.5-11.5C40.4,24.4,35.2,19.3,28.9,19.3z"/>
			</g>
			<g>
				<path class="st3" d="M28.9,72.3c-7.2,0-13.1-5.9-13.1-13.1s5.9-13.1,13.1-13.1C36.1,46.2,42,52,42,59.3S36.1,72.3,28.9,72.3z
					 M28.9,47.8c-6.3,0-11.5,5.1-11.5,11.5c0,6.3,5.1,11.5,11.5,11.5s11.5-5.1,11.5-11.5C40.4,52.9,35.2,47.8,28.9,47.8z"/>
			</g>
			<g>
				<path class="st3" d="M32.6,27c0.1,0,0.1,0.1,0.1,0.2c0,0.1,0,0.1,0,0.2l-1,1.4c0,0.1-0.1,0.1-0.1,0.1s-0.1,0-0.2,0
					c-0.2-0.1-0.4-0.3-0.6-0.3c-0.2-0.1-0.5-0.1-0.7-0.1c-0.4,0-0.7,0.1-1,0.3c-0.3,0.2-0.6,0.4-0.7,0.7h1.3c0.1,0,0.1,0,0.2,0.1
					s0.1,0.1,0.1,0.2v0.6c0,0.1,0,0.1-0.1,0.2c0,0.1-0.1,0.1-0.2,0.1h-1.7c0,0,0,0.1,0,0.1c0,0,0,0.1,0,0.1c0,0.1,0,0.2,0,0.3h1.7
					c0.1,0,0.1,0,0.2,0.1c0,0,0.1,0.1,0.1,0.2v0.6c0,0.1,0,0.1-0.1,0.2c0,0.1-0.1,0.1-0.2,0.1h-1.2c0.2,0.3,0.4,0.5,0.7,0.6
					c0.3,0.1,0.6,0.2,1,0.2c0.3,0,0.5,0,0.7-0.1c0.2-0.1,0.4-0.2,0.6-0.3c0.1,0,0.1-0.1,0.2-0.1c0,0,0.1,0,0.1,0.1l1,1.4
					c0,0.1,0,0.2,0,0.2c0,0.1-0.1,0.1-0.1,0.1c-0.4,0.2-0.8,0.4-1.2,0.6c-0.4,0.1-0.9,0.2-1.3,0.2c-0.5,0-1-0.1-1.4-0.2
					c-0.4-0.1-0.8-0.4-1.2-0.6c-0.4-0.3-0.7-0.6-1-0.9c-0.3-0.4-0.5-0.8-0.6-1.2h-0.6c-0.2,0-0.3-0.1-0.3-0.3v-0.6
					c0-0.2,0.1-0.3,0.3-0.3h0.3c0,0,0-0.1,0-0.1s0-0.1,0-0.1c0,0,0-0.1,0-0.1c0,0,0-0.1,0-0.1h-0.3c-0.2,0-0.3-0.1-0.3-0.3v-0.6
					c0-0.2,0.1-0.3,0.3-0.3h0.5c0.1-0.4,0.4-0.9,0.6-1.2c0.3-0.4,0.6-0.7,1-1c0.4-0.3,0.8-0.5,1.2-0.6c0.4-0.2,0.9-0.2,1.4-0.2
					c0.5,0,0.9,0.1,1.3,0.2C31.8,26.6,32.2,26.8,32.6,27z"/>
			</g>
			<g>
				<path class="st3" d="M27.1,60.8c0.1,0.1,0.2,0.1,0.3,0.2c0.1,0.1,0.2,0.2,0.4,0.3c0.2,0.1,0.4,0.2,0.6,0.3
					c0.2,0.1,0.4,0.1,0.6,0.1c0.2,0,0.4,0,0.5-0.1s0.2-0.1,0.3-0.2c0.1-0.1,0.1-0.2,0.2-0.3c0-0.1,0-0.2,0-0.3c0-0.1,0-0.2-0.1-0.3
					c-0.1-0.1-0.2-0.2-0.3-0.3c-0.1-0.1-0.3-0.1-0.4-0.2c-0.1-0.1-0.3-0.1-0.4-0.1c-0.5-0.2-0.9-0.3-1.2-0.5
					c-0.3-0.2-0.6-0.4-0.9-0.6c-0.2-0.2-0.4-0.5-0.5-0.8c-0.1-0.3-0.2-0.6-0.2-0.9c0-0.3,0.1-0.6,0.2-0.8c0.1-0.3,0.2-0.5,0.4-0.7
					c0.2-0.2,0.4-0.4,0.7-0.5c0.3-0.1,0.6-0.2,0.9-0.3V54c0-0.1,0-0.1,0.1-0.2c0-0.1,0.1-0.1,0.2-0.1h1.1c0.1,0,0.1,0,0.2,0.1
					c0.1,0,0.1,0.1,0.1,0.2v0.8c0.2,0,0.4,0.1,0.6,0.2c0.2,0.1,0.4,0.2,0.6,0.3c0.1,0.1,0.3,0.2,0.4,0.2c0.1,0.1,0.2,0.2,0.3,0.2
					c0.1,0.1,0.2,0.2,0.2,0.2c0.1,0.1,0.1,0.1,0.1,0.2c0,0.1,0,0.1,0,0.1c0,0-0.1,0.1-0.1,0.1l-0.9,1c-0.1,0.1-0.1,0.1-0.2,0.1
					c-0.1,0-0.1,0-0.1,0c0,0-0.1-0.1-0.1-0.1l-0.1,0c-0.1-0.1-0.2-0.1-0.3-0.2c-0.1-0.1-0.2-0.1-0.3-0.2c-0.1-0.1-0.2-0.1-0.3-0.1
					c-0.1,0-0.2-0.1-0.4-0.1c-0.1,0-0.2,0-0.4,0c-0.1,0-0.2,0.1-0.3,0.1s-0.2,0.1-0.2,0.2c-0.1,0.1-0.1,0.2-0.1,0.3s0,0.2,0.1,0.3
					c0.1,0.1,0.1,0.2,0.2,0.2s0.2,0.1,0.4,0.2c0.2,0.1,0.3,0.1,0.6,0.2c0.4,0.1,0.8,0.3,1.1,0.4c0.3,0.1,0.6,0.3,0.9,0.5
					c0.3,0.2,0.5,0.4,0.6,0.7c0.1,0.3,0.2,0.6,0.2,1c0,0.4-0.1,0.7-0.2,1c-0.1,0.3-0.3,0.6-0.5,0.8c-0.2,0.2-0.5,0.4-0.8,0.6
					c-0.3,0.2-0.7,0.3-1,0.3v0.8c0,0.2-0.1,0.3-0.3,0.3h-1.1c-0.2,0-0.3-0.1-0.3-0.3v-0.9c-0.3-0.1-0.6-0.2-0.9-0.3
					c-0.3-0.1-0.6-0.3-0.8-0.5c-0.2-0.1-0.3-0.2-0.4-0.3c-0.1-0.1-0.2-0.2-0.3-0.3l0,0c0,0,0,0,0,0c0,0,0,0,0,0c0,0,0,0,0,0
					c0,0,0,0,0,0c-0.1-0.1-0.1-0.2-0.1-0.2c0-0.1,0-0.1,0.1-0.2l1-1c0.1-0.1,0.1-0.1,0.2-0.1c0,0,0.1,0,0.1,0
					C27,60.7,27.1,60.8,27.1,60.8z"/>
			</g>
		</g>
		<g>
			<g>
				<path class="st3" d="M61.1,43.8C53.9,43.8,48,38,48,30.8s5.9-13.1,13.1-13.1c7.2,0,13.1,5.9,13.1,13.1S68.3,43.8,61.1,43.8z
					 M61.1,19.3c-6.3,0-11.5,5.1-11.5,11.5c0,6.3,5.1,11.5,11.5,11.5s11.5-5.1,11.5-11.5C72.5,24.4,67.4,19.3,61.1,19.3z"/>
			</g>
			<g>
				<path class="st3" d="M61.1,72.3c-7.2,0-13.1-5.9-13.1-13.1s5.9-13.1,13.1-13.1c7.2,0,13.1,5.9,13.1,13.1S68.3,72.3,61.1,72.3z
					 M61.1,47.8c-6.3,0-11.5,5.1-11.5,11.5c0,6.3,5.1,11.5,11.5,11.5s11.5-5.1,11.5-11.5C72.5,52.9,67.4,47.8,61.1,47.8z"/>
			</g>
			<g>
				<path class="st3" d="M58.4,29.3c0-0.4,0.1-0.8,0.2-1.2c0.2-0.4,0.4-0.7,0.6-0.9c0.3-0.3,0.6-0.5,1-0.6c0.4-0.2,0.7-0.2,1.1-0.2
					c0.3,0,0.6,0,0.9,0.1c0.3,0.1,0.6,0.2,0.8,0.3c0.1,0,0.1,0.1,0.2,0.1c0,0.1,0.1,0.1,0.1,0.2c0,0,0,0,0,0.1c0,0,0,0,0,0.1l-0.5,1
					c-0.1,0.1-0.1,0.2-0.2,0.2h0c0,0-0.1,0-0.2-0.1c-0.1-0.1-0.2-0.1-0.4-0.2c-0.1-0.1-0.3-0.1-0.4-0.1c-0.1,0-0.3,0-0.4,0.1
					c-0.1,0.1-0.2,0.1-0.3,0.2c-0.1,0.1-0.2,0.2-0.2,0.3c0,0.1-0.1,0.3-0.1,0.4v0.9h1.6c0.1,0,0.1,0,0.2,0.1c0.1,0,0.1,0.1,0.1,0.2
					v1.1c0,0.1,0,0.1-0.1,0.2c0,0.1-0.1,0.1-0.2,0.1h-1.6v1.3h2.9c0.1,0,0.1,0,0.2,0.1c0,0,0.1,0.1,0.1,0.2v1.5c0,0,0,0.1,0,0.1
					s0,0.1-0.1,0.1c0,0-0.1,0.1-0.1,0.1c0,0-0.1,0-0.1,0h-4.8c-0.2,0-0.3-0.1-0.3-0.3V29.3z"/>
			</g>
			<g>
				<path class="st3" d="M61.1,58.1l1.4-3c0,0,0-0.1,0.1-0.1c0,0,0,0,0,0c0,0,0,0,0,0c0,0,0,0,0.1,0H65c0,0,0,0,0.1,0c0,0,0,0,0,0.1
					c0,0,0,0,0,0.1c0,0,0,0.1-0.1,0.1L62.8,59h0.7c0.1,0,0.1,0,0.2,0.1c0.1,0,0.1,0.1,0.1,0.2v0.6c0,0.1,0,0.1-0.1,0.2
					c0,0.1-0.1,0.1-0.2,0.1h-1.3v0.5h1.3c0.1,0,0.1,0,0.2,0.1c0.1,0,0.1,0.1,0.1,0.2v0.6c0,0.1,0,0.1-0.1,0.2s-0.1,0.1-0.2,0.1h-1.3
					v1.4c0,0.2-0.1,0.3-0.3,0.3h-1.7c-0.1,0-0.1,0-0.2-0.1c0,0-0.1-0.1-0.1-0.2v-1.4h-1.2c-0.2,0-0.3-0.1-0.3-0.3V61
					c0-0.2,0.1-0.3,0.3-0.3h1.2v-0.5h-1.2c-0.2,0-0.3-0.1-0.3-0.3v-0.6c0-0.2,0.1-0.3,0.3-0.3h0.6l-2.2-3.9c0,0,0-0.1-0.1-0.1
					c0,0,0,0,0-0.1c0,0,0,0,0-0.1c0,0,0,0,0.1,0h2.2c0,0,0,0,0.1,0c0,0,0,0,0,0c0,0,0,0,0,0c0,0,0,0.1,0.1,0.1L61.1,58.1z"/>
			</g>
		</g>
	</g>
	<g>
		<g>
			<path class="st3" d="M41.2,48.8L41.2,48.8c-0.4-0.4-0.4-1,0-1.3l6.4-6.4c0.4-0.4,1-0.4,1.3,0h0c0.4,0.4,0.4,1,0,1.3l-6.4,6.4
				C42.1,49.2,41.5,49.2,41.2,48.8z"/>
		</g>
		<g>
			<path class="st3" d="M41.2,41.2L41.2,41.2c0.4-0.4,1-0.4,1.3,0l6.4,6.4c0.4,0.4,0.4,1,0,1.3l0,0c-0.4,0.4-1,0.4-1.3,0l-6.4-6.4
				C40.8,42.1,40.8,41.5,41.2,41.2z"/>
		</g>
	</g>
</g>
</svg>
