<?xml version="1.0" encoding="utf-8"?>
<!-- Generator: Adobe Illustrator 24.1.3, SVG Export Plug-In . SVG Version: 6.00 Build 0)  -->
<svg version="1.1" id="Layer_1" xmlns="http://www.w3.org/2000/svg" xmlns:xlink="http://www.w3.org/1999/xlink" x="0px" y="0px"
	 viewBox="0 0 90 90" style="enable-background:new 0 0 90 90;" xml:space="preserve">
<style type="text/css">
	.st0{fill:#192E58;}
	.st1{fill:#00AF4D;}
	.st2{fill:#2A2765;}
	.st3{fill:#FFFFFF;}
	.st4{fill:#004321;}
	.st5{fill:#00AB4E;}
	.st6{fill:#333333;}
</style>
<g>
	<g>
		<g>
			<g>
				<g>
					<path class="st3" d="M25,43.5c-9,0-16.3-7.3-16.3-16.3S16,11,25,11c9,0,16.3,7.3,16.3,16.3S33.9,43.5,25,43.5z M25,13
						c-7.9,0-14.3,6.4-14.3,14.3c0,7.9,6.4,14.3,14.3,14.3s14.3-6.4,14.3-14.3C39.2,19.4,32.8,13,25,13z"/>
				</g>
				<g>
					<path class="st3" d="M25,79c-9,0-16.3-7.3-16.3-16.3S16,46.5,25,46.5c9,0,16.3,7.3,16.3,16.3S33.9,79,25,79z M25,48.5
						c-7.9,0-14.3,6.4-14.3,14.3C10.7,70.6,17.1,77,25,77s14.3-6.4,14.3-14.3C39.2,54.9,32.8,48.5,25,48.5z"/>
				</g>
				<g>
					<path class="st3" d="M29.5,22.7c0.1,0,0.1,0.1,0.2,0.2c0,0.1,0,0.2,0,0.3l-1.2,1.7c-0.1,0.1-0.1,0.1-0.2,0.1
						c-0.1,0-0.1,0-0.2-0.1c-0.2-0.2-0.5-0.3-0.8-0.4c-0.3-0.1-0.6-0.1-0.9-0.1c-0.5,0-0.9,0.1-1.3,0.3c-0.4,0.2-0.7,0.5-0.9,0.8
						h1.6c0.1,0,0.2,0,0.2,0.1c0.1,0.1,0.1,0.1,0.1,0.2v0.8c0,0.1,0,0.2-0.1,0.2C25.9,27,25.8,27,25.8,27h-2.1c0,0,0,0.1,0,0.1
						c0,0,0,0.1,0,0.1c0,0.1,0,0.3,0,0.4h2.1c0.1,0,0.2,0,0.2,0.1c0.1,0.1,0.1,0.1,0.1,0.2v0.8c0,0.1,0,0.2-0.1,0.2
						c-0.1,0.1-0.1,0.1-0.2,0.1h-1.5c0.2,0.3,0.5,0.6,0.9,0.7c0.4,0.2,0.8,0.3,1.2,0.3c0.3,0,0.6,0,0.9-0.1c0.3-0.1,0.6-0.2,0.8-0.4
						c0.1-0.1,0.2-0.1,0.2-0.1c0.1,0,0.1,0.1,0.2,0.1l1.2,1.8c0.1,0.1,0.1,0.2,0,0.3c0,0.1-0.1,0.1-0.2,0.2
						c-0.5,0.3-0.9,0.5-1.5,0.7c-0.5,0.2-1.1,0.3-1.7,0.3c-0.6,0-1.2-0.1-1.7-0.3c-0.5-0.2-1.1-0.4-1.5-0.8
						c-0.5-0.3-0.9-0.7-1.2-1.2c-0.3-0.5-0.6-0.9-0.8-1.5h-0.7c-0.2,0-0.3-0.1-0.3-0.4V28c0-0.2,0.1-0.3,0.3-0.3h0.4
						c0-0.1,0-0.1,0-0.2c0-0.1,0-0.1,0-0.2c0,0,0-0.1,0-0.1s0-0.1,0-0.1h-0.4c-0.2,0-0.3-0.1-0.3-0.4v-0.8c0-0.2,0.1-0.3,0.3-0.3
						h0.7c0.2-0.6,0.4-1.1,0.8-1.5c0.3-0.5,0.7-0.9,1.2-1.2c0.5-0.3,1-0.6,1.5-0.8s1.1-0.3,1.8-0.3c0.6,0,1.1,0.1,1.6,0.2
						C28.6,22.1,29.1,22.4,29.5,22.7z"/>
				</g>
				<g>
					<path class="st3" d="M22.8,64.7c0.1,0.1,0.2,0.2,0.3,0.3c0.1,0.1,0.3,0.2,0.4,0.3c0.2,0.2,0.5,0.3,0.7,0.4
						c0.2,0.1,0.5,0.1,0.8,0.1c0.2,0,0.5,0,0.6-0.1c0.2-0.1,0.3-0.1,0.4-0.2c0.1-0.1,0.2-0.2,0.2-0.3c0-0.1,0.1-0.2,0.1-0.4
						c0-0.2-0.1-0.3-0.2-0.4c-0.1-0.1-0.3-0.2-0.4-0.3c-0.2-0.1-0.3-0.2-0.5-0.2c-0.2-0.1-0.3-0.1-0.5-0.2c-0.6-0.2-1.1-0.4-1.5-0.7
						c-0.4-0.2-0.8-0.5-1.1-0.8c-0.3-0.3-0.5-0.6-0.7-1c-0.1-0.3-0.2-0.7-0.2-1.2c0-0.4,0.1-0.7,0.2-1c0.1-0.3,0.3-0.6,0.5-0.8
						c0.2-0.2,0.5-0.5,0.9-0.6c0.3-0.2,0.7-0.3,1.1-0.4v-1c0-0.1,0-0.2,0.1-0.2c0.1-0.1,0.1-0.1,0.2-0.1h1.4c0.1,0,0.1,0,0.2,0.1
						c0.1,0.1,0.1,0.1,0.1,0.2v1c0.3,0,0.5,0.1,0.8,0.2c0.3,0.1,0.5,0.2,0.8,0.3c0.2,0.1,0.3,0.2,0.5,0.3s0.3,0.2,0.4,0.3
						c0.1,0.1,0.2,0.2,0.3,0.3c0.1,0.1,0.1,0.2,0.1,0.2c0,0.1,0,0.1,0,0.2c0,0.1-0.1,0.1-0.1,0.2l-1.1,1.2c-0.1,0.1-0.2,0.1-0.2,0.1
						c-0.1,0-0.1,0-0.2-0.1c-0.1,0-0.1-0.1-0.2-0.1l-0.1-0.1c-0.1-0.1-0.2-0.2-0.3-0.3c-0.1-0.1-0.2-0.2-0.4-0.2
						c-0.1-0.1-0.3-0.1-0.4-0.2c-0.2,0-0.3-0.1-0.5-0.1c-0.2,0-0.3,0-0.5,0c-0.1,0-0.3,0.1-0.4,0.1s-0.2,0.1-0.3,0.2
						C24.1,60,24,60.1,24,60.3s0,0.3,0.1,0.4c0.1,0.1,0.2,0.2,0.3,0.3c0.1,0.1,0.3,0.2,0.5,0.2c0.2,0.1,0.4,0.2,0.7,0.2
						c0.5,0.2,1,0.3,1.4,0.5c0.4,0.2,0.8,0.4,1.1,0.7c0.3,0.3,0.6,0.6,0.7,0.9c0.2,0.4,0.3,0.8,0.3,1.3c0,0.5-0.1,0.9-0.2,1.3
						c-0.2,0.4-0.4,0.7-0.7,1c-0.3,0.3-0.6,0.5-1,0.7c-0.4,0.2-0.8,0.3-1.3,0.4v1c0,0.2-0.1,0.3-0.3,0.3h-1.4
						c-0.2,0-0.3-0.1-0.3-0.3v-1.1c-0.4-0.1-0.8-0.2-1.1-0.4c-0.4-0.2-0.7-0.4-1-0.6c-0.2-0.1-0.4-0.3-0.5-0.4
						c-0.1-0.1-0.2-0.2-0.3-0.3l0,0c0,0,0,0,0,0c0,0,0,0,0,0c0,0,0,0,0,0c0,0,0,0,0,0c-0.1-0.1-0.2-0.2-0.2-0.3
						c0-0.1,0.1-0.2,0.2-0.3l1.3-1.2c0.1-0.1,0.2-0.1,0.2-0.1c0,0,0.1,0,0.1,0C22.6,64.6,22.7,64.6,22.8,64.7z"/>
				</g>
			</g>
			<g>
				<g>
					<path class="st3" d="M65,43.5c-9,0-16.3-7.3-16.3-16.3S56.1,11,65,11c9,0,16.3,7.3,16.3,16.3S74,43.5,65,43.5z M65,13
						c-7.9,0-14.3,6.4-14.3,14.3c0,7.9,6.4,14.3,14.3,14.3s14.3-6.4,14.3-14.3C79.3,19.4,72.9,13,65,13z"/>
				</g>
				<g>
					<path class="st3" d="M65,79c-9,0-16.3-7.3-16.3-16.3S56.1,46.5,65,46.5c9,0,16.3,7.3,16.3,16.3S74,79,65,79z M65,48.5
						c-7.9,0-14.3,6.4-14.3,14.3C50.8,70.6,57.2,77,65,77s14.3-6.4,14.3-14.3C79.3,54.9,72.9,48.5,65,48.5z"/>
				</g>
				<g>
					<path class="st3" d="M61.7,25.5c0-0.5,0.1-1,0.3-1.4c0.2-0.4,0.5-0.8,0.8-1.2c0.3-0.3,0.7-0.6,1.2-0.8c0.5-0.2,0.9-0.3,1.4-0.3
						c0.4,0,0.8,0.1,1.2,0.2c0.4,0.1,0.7,0.2,1,0.4c0.1,0,0.2,0.1,0.2,0.2c0.1,0.1,0.1,0.2,0.1,0.3c0,0,0,0.1,0,0.1c0,0,0,0.1,0,0.1
						l-0.7,1.3c-0.1,0.1-0.2,0.2-0.3,0.2h0c0,0-0.1,0-0.2-0.1c-0.1-0.1-0.3-0.2-0.4-0.2c-0.2-0.1-0.4-0.1-0.5-0.1
						c-0.2,0-0.3,0-0.5,0.1c-0.2,0.1-0.3,0.2-0.4,0.3c-0.1,0.1-0.2,0.3-0.3,0.4c-0.1,0.2-0.1,0.3-0.1,0.5v1.1h2c0.1,0,0.2,0,0.2,0.1
						c0.1,0.1,0.1,0.1,0.1,0.2v1.3c0,0.1,0,0.2-0.1,0.2c-0.1,0.1-0.1,0.1-0.3,0.1h-2v1.6H68c0.1,0,0.2,0,0.2,0.1
						c0.1,0.1,0.1,0.1,0.1,0.2v1.9c0,0,0,0.1,0,0.1c0,0,0,0.1-0.1,0.1c0,0-0.1,0.1-0.1,0.1c0,0-0.1,0-0.1,0h-6
						c-0.2,0-0.3-0.1-0.3-0.3V25.5z"/>
				</g>
				<g>
					<path class="st3" d="M65,61.3l1.8-3.8c0-0.1,0.1-0.1,0.1-0.1c0,0,0,0,0.1-0.1c0,0,0,0,0.1,0c0,0,0,0,0.1,0h2.8c0,0,0.1,0,0.1,0
						c0,0,0,0,0,0.1c0,0,0,0.1,0,0.1c0,0,0,0.1-0.1,0.1l-2.7,4.8H68c0.1,0,0.2,0,0.2,0.1c0.1,0.1,0.1,0.1,0.1,0.2v0.8
						c0,0.1,0,0.1-0.1,0.2c-0.1,0.1-0.1,0.1-0.2,0.1h-1.6v0.7H68c0.1,0,0.2,0,0.2,0.1c0.1,0.1,0.1,0.1,0.1,0.2v0.8
						c0,0.1,0,0.2-0.1,0.2C68.2,66,68.1,66,68,66h-1.6v1.7c0,0.2-0.1,0.3-0.3,0.3h-2.2c-0.1,0-0.2,0-0.2-0.1
						c-0.1-0.1-0.1-0.1-0.1-0.3V66h-1.5c-0.2,0-0.3-0.1-0.3-0.4v-0.8c0-0.2,0.1-0.3,0.3-0.3h1.5v-0.7h-1.5c-0.2,0-0.3-0.1-0.3-0.3
						v-0.8c0-0.2,0.1-0.3,0.3-0.3h0.8l-2.7-4.8c0,0,0-0.1-0.1-0.1c0,0,0-0.1,0-0.1c0,0,0-0.1,0-0.1c0,0,0,0,0.1,0H63
						c0,0,0.1,0,0.1,0c0,0,0,0,0.1,0c0,0,0,0,0.1,0.1c0,0,0,0.1,0.1,0.1L65,61.3z"/>
				</g>
			</g>
		</g>
		<g>
			<g>
				<path class="st3" d="M40.2,49.8L40.2,49.8c-0.5-0.5-0.5-1.2,0-1.6l7.9-7.9c0.5-0.5,1.2-0.5,1.6,0l0,0c0.5,0.5,0.5,1.2,0,1.6
					l-7.9,7.9C41.4,50.2,40.7,50.2,40.2,49.8z"/>
			</g>
			<g>
				<path class="st3" d="M40.2,40.2L40.2,40.2c0.5-0.5,1.2-0.5,1.6,0l7.9,7.9c0.5,0.5,0.5,1.2,0,1.6l0,0c-0.5,0.5-1.2,0.5-1.6,0
					l-7.9-7.9C39.8,41.4,39.8,40.7,40.2,40.2z"/>
			</g>
		</g>
	</g>
</g>
</svg>
