<?xml version="1.0" encoding="utf-8"?>
<!-- Generator: Adobe Illustrator 24.1.3, SVG Export Plug-In . SVG Version: 6.00 Build 0)  -->
<svg version="1.1" id="Layer_1" xmlns="http://www.w3.org/2000/svg" xmlns:xlink="http://www.w3.org/1999/xlink" x="0px" y="0px"
	 viewBox="0 0 50 50" style="enable-background:new 0 0 50 50;" xml:space="preserve">
<style type="text/css">
	.st0{fill:#192E58;}
	.st1{fill:#00AF4D;}
	.st2{fill:#2A2765;}
	.st3{fill:#FFFFFF;}
	.st4{fill:#004321;}
	.st5{fill:#00AB4E;}
	.st6{fill:#333333;}
</style>
<g>
	<g>
		<g>
			<g>
				<path class="st3" d="M16.9,24.4c-3.6,0-6.6-2.9-6.6-6.6s2.9-6.6,6.6-6.6c3.6,0,6.6,2.9,6.6,6.6S20.5,24.4,16.9,24.4z M16.9,12.1
					c-3.2,0-5.8,2.6-5.8,5.8c0,3.2,2.6,5.8,5.8,5.8s5.8-2.6,5.8-5.8C22.7,14.7,20.1,12.1,16.9,12.1z"/>
			</g>
			<g>
				<path class="st3" d="M16.9,38.7c-3.6,0-6.6-2.9-6.6-6.6c0-3.6,2.9-6.6,6.6-6.6c3.6,0,6.6,2.9,6.6,6.6
					C23.5,35.8,20.5,38.7,16.9,38.7z M16.9,26.4c-3.2,0-5.8,2.6-5.8,5.8c0,3.2,2.6,5.8,5.8,5.8s5.8-2.6,5.8-5.8
					C22.7,29,20.1,26.4,16.9,26.4z"/>
			</g>
			<g>
				<path class="st3" d="M18.8,16C18.8,16,18.8,16,18.8,16c0.1,0.1,0.1,0.1,0.1,0.2l-0.5,0.7c0,0,0,0.1-0.1,0.1s-0.1,0-0.1,0
					c-0.1-0.1-0.2-0.1-0.3-0.2c-0.1,0-0.2-0.1-0.4-0.1c-0.2,0-0.4,0-0.5,0.1c-0.2,0.1-0.3,0.2-0.4,0.3h0.6c0,0,0.1,0,0.1,0
					c0,0,0,0.1,0,0.1v0.3c0,0,0,0.1,0,0.1c0,0-0.1,0-0.1,0h-0.8c0,0,0,0,0,0c0,0,0,0,0,0c0,0.1,0,0.1,0,0.1h0.8c0,0,0.1,0,0.1,0
					c0,0,0,0.1,0,0.1v0.3c0,0,0,0.1,0,0.1c0,0-0.1,0-0.1,0h-0.6c0.1,0.1,0.2,0.2,0.4,0.3c0.1,0.1,0.3,0.1,0.5,0.1
					c0.1,0,0.3,0,0.4-0.1c0.1,0,0.2-0.1,0.3-0.2c0,0,0.1,0,0.1,0c0,0,0,0,0.1,0.1l0.5,0.7c0,0,0,0.1,0,0.1c0,0,0,0.1-0.1,0.1
					c-0.2,0.1-0.4,0.2-0.6,0.3c-0.2,0.1-0.4,0.1-0.7,0.1c-0.2,0-0.5,0-0.7-0.1c-0.2-0.1-0.4-0.2-0.6-0.3c-0.2-0.1-0.3-0.3-0.5-0.5
					c-0.1-0.2-0.2-0.4-0.3-0.6h-0.3c-0.1,0-0.1,0-0.1-0.1v-0.3c0-0.1,0-0.1,0.1-0.1h0.2c0,0,0,0,0-0.1c0,0,0,0,0-0.1c0,0,0,0,0-0.1
					c0,0,0,0,0-0.1h-0.2c-0.1,0-0.1,0-0.1-0.1v-0.3c0-0.1,0-0.1,0.1-0.1h0.3c0.1-0.2,0.2-0.4,0.3-0.6c0.1-0.2,0.3-0.4,0.5-0.5
					c0.2-0.1,0.4-0.2,0.6-0.3c0.2-0.1,0.5-0.1,0.7-0.1c0.2,0,0.5,0,0.7,0.1C18.4,15.8,18.6,15.9,18.8,16z"/>
			</g>
			<g>
				<path class="st3" d="M16,32.9c0,0,0.1,0.1,0.1,0.1c0.1,0,0.1,0.1,0.2,0.1c0.1,0.1,0.2,0.1,0.3,0.2c0.1,0,0.2,0.1,0.3,0.1
					c0.1,0,0.2,0,0.3,0s0.1-0.1,0.2-0.1c0,0,0.1-0.1,0.1-0.1c0,0,0-0.1,0-0.2c0-0.1,0-0.1-0.1-0.2c0,0-0.1-0.1-0.2-0.1
					c-0.1,0-0.1-0.1-0.2-0.1c-0.1,0-0.1,0-0.2-0.1c-0.2-0.1-0.4-0.2-0.6-0.3c-0.2-0.1-0.3-0.2-0.4-0.3c-0.1-0.1-0.2-0.2-0.3-0.4
					c-0.1-0.1-0.1-0.3-0.1-0.5c0-0.2,0-0.3,0.1-0.4s0.1-0.2,0.2-0.3c0.1-0.1,0.2-0.2,0.3-0.3c0.1-0.1,0.3-0.1,0.5-0.2v-0.4
					c0,0,0-0.1,0-0.1c0,0,0.1,0,0.1,0h0.6c0,0,0.1,0,0.1,0c0,0,0,0.1,0,0.1v0.4c0.1,0,0.2,0,0.3,0.1c0.1,0,0.2,0.1,0.3,0.1
					c0.1,0,0.1,0.1,0.2,0.1c0.1,0,0.1,0.1,0.2,0.1c0,0,0.1,0.1,0.1,0.1c0,0,0,0.1,0,0.1c0,0,0,0,0,0.1c0,0,0,0-0.1,0.1l-0.4,0.5
					c0,0-0.1,0-0.1,0c0,0-0.1,0-0.1,0c0,0,0,0-0.1-0.1l0,0c0,0-0.1-0.1-0.1-0.1c0,0-0.1-0.1-0.2-0.1c-0.1,0-0.1-0.1-0.2-0.1
					c-0.1,0-0.1,0-0.2,0c-0.1,0-0.1,0-0.2,0c-0.1,0-0.1,0-0.1,0.1c0,0-0.1,0.1-0.1,0.1c0,0,0,0.1,0,0.1s0,0.1,0,0.1s0.1,0.1,0.1,0.1
					s0.1,0.1,0.2,0.1c0.1,0,0.2,0.1,0.3,0.1c0.2,0.1,0.4,0.1,0.6,0.2c0.2,0.1,0.3,0.2,0.5,0.3c0.1,0.1,0.2,0.2,0.3,0.4
					c0.1,0.1,0.1,0.3,0.1,0.5c0,0.2,0,0.4-0.1,0.5c-0.1,0.2-0.2,0.3-0.3,0.4c-0.1,0.1-0.3,0.2-0.4,0.3c-0.2,0.1-0.3,0.1-0.5,0.2v0.4
					c0,0.1,0,0.1-0.1,0.1h-0.6c-0.1,0-0.1,0-0.1-0.1v-0.4c-0.2,0-0.3-0.1-0.4-0.2c-0.1-0.1-0.3-0.1-0.4-0.2
					c-0.1-0.1-0.1-0.1-0.2-0.2c-0.1-0.1-0.1-0.1-0.1-0.1l0,0c0,0,0,0,0,0c0,0,0,0,0,0c0,0,0,0,0,0c0,0,0,0,0,0c0,0-0.1-0.1-0.1-0.1
					c0,0,0-0.1,0.1-0.1l0.5-0.5c0,0,0.1,0,0.1,0C15.9,32.9,15.9,32.9,16,32.9C16,32.9,16,32.9,16,32.9z"/>
			</g>
		</g>
		<g>
			<g>
				<path class="st3" d="M33.1,24.4c-3.6,0-6.6-2.9-6.6-6.6s2.9-6.6,6.6-6.6c3.6,0,6.6,2.9,6.6,6.6S36.7,24.4,33.1,24.4z M33.1,12.1
					c-3.2,0-5.8,2.6-5.8,5.8c0,3.2,2.6,5.8,5.8,5.8s5.8-2.6,5.8-5.8C38.8,14.7,36.3,12.1,33.1,12.1z"/>
			</g>
			<g>
				<path class="st3" d="M33.1,38.7c-3.6,0-6.6-2.9-6.6-6.6c0-3.6,2.9-6.6,6.6-6.6c3.6,0,6.6,2.9,6.6,6.6
					C39.6,35.8,36.7,38.7,33.1,38.7z M33.1,26.4c-3.2,0-5.8,2.6-5.8,5.8c0,3.2,2.6,5.8,5.8,5.8s5.8-2.6,5.8-5.8
					C38.8,29,36.3,26.4,33.1,26.4z"/>
			</g>
			<g>
				<path class="st3" d="M31.7,17.1c0-0.2,0-0.4,0.1-0.6c0.1-0.2,0.2-0.3,0.3-0.5c0.1-0.1,0.3-0.2,0.5-0.3c0.2-0.1,0.4-0.1,0.6-0.1
					c0.2,0,0.3,0,0.5,0.1c0.1,0,0.3,0.1,0.4,0.2c0,0,0.1,0,0.1,0.1c0,0,0,0.1,0,0.1c0,0,0,0,0,0c0,0,0,0,0,0l-0.3,0.5
					c0,0.1-0.1,0.1-0.1,0.1h0c0,0,0,0-0.1,0c0,0-0.1-0.1-0.2-0.1c-0.1,0-0.1,0-0.2,0c-0.1,0-0.1,0-0.2,0c-0.1,0-0.1,0.1-0.2,0.1
					c0,0-0.1,0.1-0.1,0.2c0,0.1,0,0.1,0,0.2v0.4h0.8c0,0,0.1,0,0.1,0c0,0,0,0.1,0,0.1v0.5c0,0,0,0.1,0,0.1c0,0-0.1,0-0.1,0h-0.8V19
					h1.5c0,0,0.1,0,0.1,0c0,0,0,0.1,0,0.1v0.8c0,0,0,0,0,0c0,0,0,0,0,0c0,0,0,0,0,0c0,0,0,0-0.1,0h-2.4c-0.1,0-0.1,0-0.1-0.1V17.1z"
					/>
			</g>
			<g>
				<path class="st3" d="M33.1,31.6l0.7-1.5c0,0,0,0,0-0.1c0,0,0,0,0,0c0,0,0,0,0,0c0,0,0,0,0,0H35c0,0,0,0,0,0c0,0,0,0,0,0
					c0,0,0,0,0,0c0,0,0,0,0,0L33.9,32h0.3c0,0,0.1,0,0.1,0c0,0,0,0.1,0,0.1v0.3c0,0,0,0.1,0,0.1c0,0-0.1,0-0.1,0h-0.6v0.3h0.6
					c0,0,0.1,0,0.1,0c0,0,0,0.1,0,0.1v0.3c0,0,0,0.1,0,0.1c0,0-0.1,0-0.1,0h-0.6v0.7c0,0.1,0,0.1-0.1,0.1h-0.9c0,0-0.1,0-0.1,0
					c0,0,0-0.1,0-0.1v-0.7h-0.6c-0.1,0-0.1,0-0.1-0.1V33c0-0.1,0-0.1,0.1-0.1h0.6v-0.3h-0.6c-0.1,0-0.1,0-0.1-0.1v-0.3
					c0-0.1,0-0.1,0.1-0.1h0.3l-1.1-1.9c0,0,0,0,0,0c0,0,0,0,0,0c0,0,0,0,0,0c0,0,0,0,0,0h1.1c0,0,0,0,0,0c0,0,0,0,0,0c0,0,0,0,0,0
					c0,0,0,0,0,0.1L33.1,31.6z"/>
			</g>
		</g>
	</g>
	<g>
		<g>
			<path class="st3" d="M23.2,27L23,26.8c-0.1-0.1-0.1-0.3,0-0.5l3.4-3.4c0.1-0.1,0.3-0.1,0.5,0l0.2,0.2c0.1,0.1,0.1,0.3,0,0.5
				L23.6,27C23.5,27.2,23.3,27.2,23.2,27z"/>
		</g>
		<g>
			<path class="st3" d="M23,23.2l0.2-0.2c0.1-0.1,0.3-0.1,0.5,0l3.4,3.4c0.1,0.1,0.1,0.3,0,0.5L26.8,27c-0.1,0.1-0.3,0.1-0.5,0
				L23,23.6C22.8,23.5,22.8,23.3,23,23.2z"/>
		</g>
	</g>
</g>
</svg>
